<svg xmlns="http://www.w3.org/2000/svg" xmlns:xlink="http://www.w3.org/1999/xlink" viewBox="0 0 85.33 170.71"><defs><style>.cls-1{mask:url(#mask);}.cls-2,.cls-25,.cls-27,.cls-4,.cls-6,.cls-8{mix-blend-mode:multiply;}.cls-2{fill:url(#linear-gradient);}.cls-3{mask:url(#mask-2);}.cls-4{fill:url(#linear-gradient-2);}.cls-5{mask:url(#mask-3);}.cls-6{fill:url(#linear-gradient-3);}.cls-7{mask:url(#mask-4);}.cls-8{fill:url(#linear-gradient-4);}.cls-9{isolation:isolate;}.cls-10{fill:url(#linear-gradient-5);}.cls-11{fill:url(#linear-gradient-6);}.cls-12{fill:#fff;}.cls-13{fill:url(#linear-gradient-7);}.cls-14{fill:url(#linear-gradient-8);}.cls-15,.cls-16,.cls-17,.cls-22,.cls-28{fill:#767676;}.cls-15,.cls-16,.cls-17,.cls-22,.cls-28,.cls-33{mix-blend-mode:color-burn;}.cls-15,.cls-25,.cls-27{opacity:0.3;}.cls-16{opacity:0.7;}.cls-17{opacity:0.4;}.cls-18{fill:url(#linear-gradient-9);}.cls-19{fill:url(#radial-gradient);}.cls-20{fill:#848484;}.cls-21{fill:#444a52;}.cls-22,.cls-33{opacity:0.2;}.cls-23{fill:#71767c;}.cls-24{mask:url(#mask-5);}.cls-25{fill:url(#linear-gradient-10);}.cls-26{mask:url(#mask-6);}.cls-27{fill:url(#linear-gradient-11);}.cls-28{opacity:0.6;}.cls-29{fill:#7f8389;}.cls-30{fill:url(#linear-gradient-12);}.cls-31{fill:url(#linear-gradient-13);}.cls-32{fill:url(#linear-gradient-14);}.cls-33{fill:#a6a6a6;}.cls-34{mask:url(#mask-7);}.cls-35,.cls-37{mix-blend-mode:soft-light;opacity:0.8;}.cls-35{fill:url(#linear-gradient-15);}.cls-36{mask:url(#mask-8);}.cls-37{fill:url(#linear-gradient-16);}.cls-38{filter:url(#luminosity-noclip-8);}.cls-39{filter:url(#luminosity-noclip-7);}.cls-40{filter:url(#luminosity-noclip-6);}.cls-41{filter:url(#luminosity-noclip-5);}.cls-42{filter:url(#luminosity-noclip-4);}.cls-43{filter:url(#luminosity-noclip-3);}.cls-44{filter:url(#luminosity-noclip-2);}.cls-45{filter:url(#luminosity-noclip);}</style><filter id="luminosity-noclip" x="3030.09" y="-8417" width="77.06" height="32766" filterUnits="userSpaceOnUse" color-interpolation-filters="sRGB"><feFlood flood-color="#fff" result="bg"/><feBlend in="SourceGraphic" in2="bg"/></filter><mask id="mask" x="3030.09" y="-8417" width="77.06" height="32766" maskUnits="userSpaceOnUse"><g class="cls-45"/></mask><linearGradient id="linear-gradient" x1="3038.78" y1="225.4" x2="3098.14" y2="177.21" gradientUnits="userSpaceOnUse"><stop offset="0"/><stop offset="0.16" stop-color="#020202"/><stop offset="0.23" stop-color="#090909"/><stop offset="0.28" stop-color="#161616"/><stop offset="0.33" stop-color="#272727"/><stop offset="0.36" stop-color="#3f3f3f"/><stop offset="0.4" stop-color="#5b5b5b"/><stop offset="0.43" stop-color="#7d7d7d"/><stop offset="0.46" stop-color="#a5a5a5"/><stop offset="0.48" stop-color="#d0d0d0"/><stop offset="0.5" stop-color="#fff"/><stop offset="0.53" stop-color="#dcdcdc"/><stop offset="0.58" stop-color="#a9a9a9"/><stop offset="0.63" stop-color="#7c7c7c"/><stop offset="0.69" stop-color="#565656"/><stop offset="0.74" stop-color="#363636"/><stop offset="0.8" stop-color="#1e1e1e"/><stop offset="0.86" stop-color="#0d0d0d"/><stop offset="0.92" stop-color="#030303"/><stop offset="1"/></linearGradient><filter id="luminosity-noclip-2" x="3030.09" y="-8417" width="77.07" height="32766" filterUnits="userSpaceOnUse" color-interpolation-filters="sRGB"><feFlood flood-color="#fff" result="bg"/><feBlend in="SourceGraphic" in2="bg"/></filter><mask id="mask-2" x="3030.09" y="-8417" width="77.07" height="32766" maskUnits="userSpaceOnUse"><g class="cls-44"/></mask><linearGradient id="linear-gradient-2" x1="3072.35" y1="162.82" x2="3064.87" y2="239.66" gradientUnits="userSpaceOnUse"><stop offset="0"/><stop offset="0.5" stop-color="#fff"/><stop offset="0.53" stop-color="#dcdcdc"/><stop offset="0.58" stop-color="#a9a9a9"/><stop offset="0.63" stop-color="#7c7c7c"/><stop offset="0.69" stop-color="#565656"/><stop offset="0.74" stop-color="#363636"/><stop offset="0.8" stop-color="#1e1e1e"/><stop offset="0.86" stop-color="#0d0d0d"/><stop offset="0.92" stop-color="#030303"/><stop offset="1"/></linearGradient><filter id="luminosity-noclip-3" x="3028.09" y="-8417" width="70" height="32766" filterUnits="userSpaceOnUse" color-interpolation-filters="sRGB"><feFlood flood-color="#fff" result="bg"/><feBlend in="SourceGraphic" in2="bg"/></filter><mask id="mask-3" x="3028.09" y="-8417" width="70" height="32766" maskUnits="userSpaceOnUse"><g class="cls-43"/></mask><linearGradient id="linear-gradient-3" x1="3092.88" y1="232.94" x2="3035.76" y2="181.32" gradientUnits="userSpaceOnUse"><stop offset="0"/><stop offset="1" stop-color="#fff"/></linearGradient><filter id="luminosity-noclip-4" x="3035.88" y="-8417" width="67.69" height="32766" filterUnits="userSpaceOnUse" color-interpolation-filters="sRGB"><feFlood flood-color="#fff" result="bg"/><feBlend in="SourceGraphic" in2="bg"/></filter><mask id="mask-4" x="3035.88" y="-8417" width="67.69" height="32766" maskUnits="userSpaceOnUse"><g class="cls-42"/></mask><linearGradient id="linear-gradient-4" x1="3092.29" y1="218.33" x2="3052.24" y2="179.48" xlink:href="#linear-gradient-3"/><linearGradient id="linear-gradient-5" x1="-2016.01" y1="180.31" x2="-1977.79" y2="140.1" gradientTransform="matrix(-1, 0, 0, 1, -1916.05, -71.75)" gradientUnits="userSpaceOnUse"><stop offset="0.16" stop-color="#13589c"/><stop offset="0.53" stop-color="#13579a"/><stop offset="0.68" stop-color="#125393"/><stop offset="0.8" stop-color="#104c86"/><stop offset="0.9" stop-color="#0e4275"/><stop offset="0.98" stop-color="#0b355e"/><stop offset="1" stop-color="#0a3157"/></linearGradient><linearGradient id="linear-gradient-6" x1="53.09" y1="79.09" x2="-23.9" y2="-59.65" gradientUnits="userSpaceOnUse"><stop offset="0" stop-color="#8e8e8e"/><stop offset="0.53" stop-color="#fff"/><stop offset="1" stop-color="#c8c8c8"/></linearGradient><linearGradient id="linear-gradient-7" x1="-2011.36" y1="184.74" x2="-1973.13" y2="144.52" xlink:href="#linear-gradient-5"/><linearGradient id="linear-gradient-8" x1="3024.59" y1="196.22" x2="3106.08" y2="196.22" gradientUnits="userSpaceOnUse"><stop offset="0" stop-color="#9ea0a6"/><stop offset="1" stop-color="#7f8389"/></linearGradient><linearGradient id="linear-gradient-9" x1="3027.33" y1="196.96" x2="3109.91" y2="196.96" gradientUnits="userSpaceOnUse"><stop offset="0" stop-color="#7f8389"/><stop offset="1" stop-color="#9ea0a6"/></linearGradient><radialGradient id="radial-gradient" cx="3068.62" cy="201.17" r="38.53" gradientUnits="userSpaceOnUse"><stop offset="0" stop-color="#83848c"/><stop offset="1" stop-color="#9c9fa4"/></radialGradient><filter id="luminosity-noclip-5" x="3030.09" y="162.64" width="77.06" height="77.06" filterUnits="userSpaceOnUse" color-interpolation-filters="sRGB"><feFlood flood-color="#fff" result="bg"/><feBlend in="SourceGraphic" in2="bg"/></filter><mask id="mask-5" x="5.5" y="90.89" width="77.06" height="77.06" maskUnits="userSpaceOnUse"><g class="cls-41"><g transform="translate(-3024.59 -71.75)"><g class="cls-1"><path class="cls-2" d="M3068.62,239.71a38.54,38.54,0,1,1,38.53-38.54A38.58,38.58,0,0,1,3068.62,239.71Z"/></g></g></g></mask><linearGradient id="linear-gradient-10" x1="3038.78" y1="225.4" x2="3098.14" y2="177.21" gradientUnits="userSpaceOnUse"><stop offset="0" stop-color="#fff"/><stop offset="0.43" stop-color="#fff"/><stop offset="0.5" stop-color="#fff"/><stop offset="0.52" stop-color="#f6f6f6"/><stop offset="0.57" stop-color="#cacccc"/><stop offset="0.64" stop-color="#a3a7a7"/><stop offset="0.7" stop-color="#848989"/><stop offset="0.76" stop-color="#6c7272"/><stop offset="0.83" stop-color="#5b6262"/><stop offset="0.91" stop-color="#515858"/><stop offset="1" stop-color="#4e5555"/></linearGradient><filter id="luminosity-noclip-6" x="3030.09" y="162.65" width="77.07" height="77.06" filterUnits="userSpaceOnUse" color-interpolation-filters="sRGB"><feFlood flood-color="#fff" result="bg"/><feBlend in="SourceGraphic" in2="bg"/></filter><mask id="mask-6" x="5.5" y="90.9" width="77.07" height="77.06" maskUnits="userSpaceOnUse"><g class="cls-40"><g transform="translate(-3024.59 -71.75)"><g class="cls-3"><path class="cls-4" d="M3107.15,201.18a38.53,38.53,0,0,1-73.9,15.27,38.13,38.13,0,0,1-3.16-15.27,38.53,38.53,0,0,1,77.06,0Z"/></g></g></g></mask><linearGradient id="linear-gradient-11" x1="3072.35" y1="162.82" x2="3064.87" y2="239.66" gradientUnits="userSpaceOnUse"><stop offset="0" stop-color="#fff"/><stop offset="0.5" stop-color="#fff"/><stop offset="0.55" stop-color="#fff"/><stop offset="1" stop-color="#fff"/></linearGradient><linearGradient id="linear-gradient-12" x1="98.14" y1="-32.69" x2="33.43" y2="67.23" gradientTransform="matrix(1, 0, 0, 1, 0, 0)" xlink:href="#linear-gradient-5"/><linearGradient id="linear-gradient-13" x1="41.78" y1="42.86" x2="79.22" y2="42.86" gradientUnits="userSpaceOnUse"><stop offset="0" stop-color="#c8c8c8"/><stop offset="0.53" stop-color="#fff"/><stop offset="1" stop-color="#c8c8c8"/></linearGradient><linearGradient id="linear-gradient-14" x1="106.3" y1="-32.4" x2="41.33" y2="67.92" gradientTransform="matrix(1, 0, 0, 1, 0, 0)" xlink:href="#linear-gradient-5"/><filter id="luminosity-noclip-7" x="3028.09" y="174.71" width="70" height="61.32" filterUnits="userSpaceOnUse" color-interpolation-filters="sRGB"><feFlood flood-color="#fff" result="bg"/><feBlend in="SourceGraphic" in2="bg"/></filter><mask id="mask-7" x="3.5" y="102.96" width="70" height="61.32" maskUnits="userSpaceOnUse"><g class="cls-39"><g transform="translate(-3024.59 -71.75)"><g class="cls-5"><path class="cls-6" d="M3098.09,230.09a41.41,41.41,0,0,1-7.31,5.93l-.46-1.83-.26-1-2.15.26-5.07-4.59-50-42-1.12-4.24-3.66,1.2a8.36,8.36,0,0,0,.51-1.16c.31-.67.64-1.34,1-2a39.6,39.6,0,0,1,3-4.83l4.34-1.08.22,4.25,48.4,39.77,1.36,1.24v0h0l1.92,1.75,2.71,2.45h0l2.6,2.37.32.27.43.4h2l.16.43Z"/></g></g></g></mask><linearGradient id="linear-gradient-15" x1="3092.88" y1="232.94" x2="3035.76" y2="181.32" gradientUnits="userSpaceOnUse"><stop offset="0" stop-color="#fff"/><stop offset="1" stop-color="#fff"/></linearGradient><filter id="luminosity-noclip-8" x="3035.88" y="168.57" width="67.69" height="58.41" filterUnits="userSpaceOnUse" color-interpolation-filters="sRGB"><feFlood flood-color="#fff" result="bg"/><feBlend in="SourceGraphic" in2="bg"/></filter><mask id="mask-8" x="11.3" y="96.82" width="67.69" height="58.41" maskUnits="userSpaceOnUse"><g class="cls-38"><g transform="translate(-3024.59 -71.75)"><g class="cls-7"><path class="cls-8" d="M3103.57,223.18a37.63,37.63,0,0,1-2.73,3.8l-1.12-2.91,0-.12h-2.17l-57.34-48.74-.42-3.56-3.87.15.44-.46c.48-.5,1-1,1.48-1.45.36-.34.74-.68,1.12-1l4.37-.33,0,3.46,56,47.25.7.65,2.06-.07h.27Z"/></g></g></g></mask><linearGradient id="linear-gradient-16" x1="3092.29" y1="218.33" x2="3052.24" y2="179.48" xlink:href="#linear-gradient-15"/></defs><g class="cls-9"><g id="Layer_1" data-name="Layer 1"><polygon class="cls-10" points="24.86 0 44.95 85.73 47.86 85.73 30.08 0 24.86 0"/><polygon class="cls-11" points="18.84 0 41.12 85.73 44.95 85.73 24.86 0 18.84 0"/><polygon class="cls-12" points="13.23 0 38.47 85.73 41.12 85.73 18.84 0 13.23 0"/><polygon class="cls-13" points="13.23 0 38.47 85.73 41.12 85.73 18.84 0 13.23 0"/><path class="cls-14" d="M3103.17,185.8v0a43.15,43.15,0,0,0-5.94-10.38s0,0,0,0c-.17-.21-.32-.41-.5-.62l-.07-.09a41.19,41.19,0,0,0-20.39-13.57c-.29-.1-.59-.17-.9-.25l-1.55-.4.45,0h.36l.61,0h.8c0-.05.06-.36.11-.87a12.93,12.93,0,0,0-1.52-5h0s0,0,0,0a6,6,0,0,0-.53-.86s0,0,0-.07a7.29,7.29,0,0,0-6.29-2.95c-2.38,0-5.51.81-7.08,2.43-3.18,3.27-3.47,5.41-3.48,7v.05a39,39,0,0,0-15.76,6.76c-.87.63-1.7,1.29-2.52,2-.38.32-.76.66-1.12,1-.51.48-1,.95-1.48,1.45l-.44.46h0c-.32.34-.64.69-1,1.06-.81.93-1.58,1.9-2.31,2.92a39.6,39.6,0,0,0-3,4.83c-.34.65-.67,1.32-1,2-.18.39-.35.77-.51,1.16a44.08,44.08,0,0,0-3.5,17.39c0,19,12.95,34.09,30.18,38.92a43.59,43.59,0,0,0,11.88,1.65,39.66,39.66,0,0,0,22.8-6.91c.29-.21.58-.41.87-.63a36,36,0,0,0,6.07-5.64c.26-.28.5-.58.74-.88.64-.77,1.25-1.58,1.81-2.41.27-.39.54-.79.78-1.19s.52-.82.76-1.25l.08-.13c.28-.48.56-1,.82-1.49s.45-.88.66-1.34a43.22,43.22,0,0,0,4-18.56A42.38,42.38,0,0,0,3103.17,185.8Zm-42.12-29.14c.16-.77.38-.4.7-.17s.49.27.8-.2a6.54,6.54,0,0,1,.61-.76,4.61,4.61,0,0,1,3.47-1.37,4.82,4.82,0,0,1,2.12.44,3.59,3.59,0,0,1,.71.42,2.39,2.39,0,0,1,.22.16c.13.1,2.94,2.47,2.85,4.14l-.41-.06a27.76,27.76,0,0,0-7.51-.16c-.83.08-1.6.21-2.37.33l-1.07.15-.5,0A16,16,0,0,1,3061.05,156.66Z" transform="translate(-3024.59 -71.75)"/><path class="cls-15" d="M3074.42,160.46s-2-1.16-1.89-1.13c.08-1.68-2.72-4.05-2.86-4.15a3.8,3.8,0,0,0-.91-.58,3.82,3.82,0,0,1,2,.12l.45.46C3072.31,156.87,3075.38,157.93,3074.42,160.46Z" transform="translate(-3024.59 -71.75)"/><path class="cls-16" d="M3076.47,163.45h-4.22l-10.14.51-.94-4.37c1.15-.15,2.23-.36,3.44-.48a27.25,27.25,0,0,1,7.92.22s3,1.94,3,2.05C3076.15,162.76,3076.44,163.44,3076.47,163.45Z" transform="translate(-3024.59 -71.75)"/><path class="cls-17" d="M3074.6,154.61h0a38.28,38.28,0,0,1-3.77-1.1l-6.63.91-1,.13-.68,1.73-.81.2-.7.17-1.85,4.71-.52-.33-1.47-.94c0-1.55.3-3.69,3.48-7a7.53,7.53,0,0,1,2.67-1.63,13.24,13.24,0,0,1,4.41-.8,7.66,7.66,0,0,1,5.35,1.87,5.84,5.84,0,0,1,.94,1.08,8.92,8.92,0,0,1,.54.92S3074.59,154.61,3074.6,154.61Z" transform="translate(-3024.59 -71.75)"/><path class="cls-18" d="M3077.48,160.84a8.47,8.47,0,0,0-1.79-5.23,17.16,17.16,0,0,0-1.64-2,7.82,7.82,0,0,0-6-2.2,8.54,8.54,0,0,0-3.66.78h0a8.39,8.39,0,0,0-2.28,1.65c-3.31,3.41-3.47,6-3.47,7.15v.06a41.29,41.29,0,0,0-18.92,10.56,40.29,40.29,0,0,0-2.81,3,41.28,41.28,0,0,0,61.15,55.38,35,35,0,0,0,2.75-3.1,39.27,39.27,0,0,0,2.73-3.8,41.31,41.31,0,0,0-26.09-62.34Zm-8.86-1a40.8,40.8,0,0,0-6.49.51,5.2,5.2,0,0,1,.11-1c.19-1,.66-1.41,1.7-2.44q.32-.3.69-.69a4.54,4.54,0,0,1,3.46-1.38,8.52,8.52,0,0,1,1.37.09,3.58,3.58,0,0,1,2.12,1,16.4,16.4,0,0,1,1.15,1.29,5.57,5.57,0,0,1,1.28,2.91A43.57,43.57,0,0,0,3068.62,159.89Z" transform="translate(-3024.59 -71.75)"/><path class="cls-15" d="M3075.69,155.61l-3,1.72a16.4,16.4,0,0,0-1.15-1.29,3.58,3.58,0,0,0-2.12-1,8.52,8.52,0,0,0-1.37-.09,4.54,4.54,0,0,0-3.46,1.38q-.37.39-.69.69l.26-2.56.22-2.19h0a8.32,8.32,0,0,0-1.08-.73,13.24,13.24,0,0,1,4.41-.8,7.66,7.66,0,0,1,5.35,1.87c.3.36.6.73.94,1.08A17.16,17.16,0,0,1,3075.69,155.61Z" transform="translate(-3024.59 -71.75)"/><path class="cls-19" d="M3068.62,239.71a38.54,38.54,0,1,1,38.53-38.54A38.58,38.58,0,0,1,3068.62,239.71Z" transform="translate(-3024.59 -71.75)"/><path class="cls-20" d="M3085.09,209.23a74.8,74.8,0,0,1-.46,7.87c-.2,0-1.13,1.7-1.48,1.87h-.05c-3.11,0-16.66-.06-21.55-.06h-8.4a57.25,57.25,0,0,1-1.78-5.76c-.06-.21,1.58-1.68,1.52-1.88a100.41,100.41,0,0,0,9.86-7.94,68,68,0,0,0,5.59-5.51,13.75,13.75,0,0,0,3.13-8.2,8.05,8.05,0,0,0-1.52-5.09,5.11,5.11,0,0,0-4-1.85,9.3,9.3,0,0,0-3.4.59l-1.36,5.92c-.19,0-1.33,1.89-1.53,1.89h-.07c-2.29,0-4.64-.59-6.73-.72.19-4,.45-7.94.72-11.84,0-.25,1.51-1.62,1.53-1.89a37.51,37.51,0,0,1,12.89-2.25c6.08,0,9.72,1.2,12.43,3.58a12.05,12.05,0,0,1,4.1,9.12c0,4.45-2.28,8.37-5.13,11.61-2.82,3.84-6.72,6.89-9.42,9-1,.78-1.79,1.41-2.61,2,4.82-.1,13.69-.51,17.56-.58l.06,0Z" transform="translate(-3024.59 -71.75)"/><path class="cls-21" d="M3085,209.13l-.06,0c-3.87.07-12.74.48-17.56.58l-.82,0v-.26c1.71-1.19,3.1-2.12,4.95-3.64a55,55,0,0,0,7.9-7.1c2.85-3.24,5.13-7.16,5.13-11.61a12.05,12.05,0,0,0-4.1-9.12c-2.71-2.38-6.35-3.58-12.43-3.58a37.51,37.51,0,0,0-12.89,2.25c0,.27-1.51,1.64-1.53,1.89-.25,3.66,1,6.25.8,9.95,1.32.08,2.3,1.22,3.46,2a3.7,3.7,0,0,0,1.75.63h.07c.2,0,1.34-1.89,1.53-1.89l1.36-5.92.16-.7a1.76,1.76,0,0,1,.07-.27,1,1,0,0,1,.26-.39,8.38,8.38,0,0,1,4.43-1.12,5.11,5.11,0,0,1,4,1.85,8.05,8.05,0,0,1,1.52,5.09c0,3.66-1.88,6.93-4.65,10.09a68,68,0,0,1-5.59,5.51,100.41,100.41,0,0,1-9.86,7.94c.06.2-1.58,1.67-1.52,1.88.45,1.7,2.73,2.29,3.31,3.87h8.4c4.56,0,15.89,1.95,20,1.95h.05c.35-.17,1.28-1.87,1.48-1.87a74.8,74.8,0,0,0,.46-7.87Z" transform="translate(-3024.59 -71.75)"/><path class="cls-22" d="M3062.75,182.31a1.76,1.76,0,0,0-.07.27l-.16.7-1.36,5.92c-.19,0-1.33,1.89-1.53,1.89h-.07a3.7,3.7,0,0,1-1.75-.63c0-.72.11-1.31.15-1.56a11.48,11.48,0,0,1,2.33-4.81c.31-.4,1.61-2.16,2.32-1.86A.34.34,0,0,1,3062.75,182.31Z" transform="translate(-3024.59 -71.75)"/><path class="cls-22" d="M3085.09,209.23a74.8,74.8,0,0,1-.46,7.87c-.2,0-1.13,1.7-1.48,1.87l0,0-.39-.16.43-7.38.3-.37,1.51-1.91Z" transform="translate(-3024.59 -71.75)"/><path class="cls-23" d="M3083.45,211l-.08-.06c-4.1.07-13.82.53-18.38.6v-.26c.83-.58,1.59-1.09,2.35-1.65s1.65-1.21,2.61-2c2.7-2.1,6.6-5.15,9.42-9A16.36,16.36,0,0,0,3083,189a12,12,0,0,0-4.1-9.13c-2.71-2.38-6.35-3.56-12.43-3.56a37.52,37.52,0,0,0-12.89,2.24c-.27,3.9-.53,7.87-.72,11.84,2.09.13,4.44.71,6.73.72h.07l1.52-6.6a1.07,1.07,0,0,1,.33-.67,7.18,7.18,0,0,1,1-.53,9.3,9.3,0,0,1,3.4-.59,5.11,5.11,0,0,1,4,1.85,8.05,8.05,0,0,1,1.52,5.09,13.75,13.75,0,0,1-3.13,8.2,52.13,52.13,0,0,1-7.12,7.4,100,100,0,0,1-9.85,7.93,57.25,57.25,0,0,0,1.78,5.76h8.4c4.89,0,18.44.06,21.55.06a0,0,0,0,1,0,0,76.79,76.79,0,0,0,.46-7.83Z" transform="translate(-3024.59 -71.75)"/><g class="cls-24"><path class="cls-25" d="M3068.62,239.71a38.54,38.54,0,1,1,38.53-38.54A38.58,38.58,0,0,1,3068.62,239.71Z" transform="translate(-3024.59 -71.75)"/></g><g class="cls-26"><path class="cls-27" d="M3107.15,201.18a38.53,38.53,0,0,1-73.9,15.27,38.13,38.13,0,0,1-3.16-15.27,38.53,38.53,0,0,1,77.06,0Z" transform="translate(-3024.59 -71.75)"/></g><path class="cls-28" d="M3107.15,201.18a38.58,38.58,0,0,1-36.91,38.49c19.69-1.69,34.35-18.26,34.35-38.38,0-21.25-16.45-38.53-37.7-38.53-.59,0-1.16,0-1.75,0,1.15-.1,2.3-.16,3.48-.16A38.57,38.57,0,0,1,3107.15,201.18Z" transform="translate(-3024.59 -71.75)"/><path class="cls-21" d="M3100,217.88s-1.1,2.72-2.59,3.46a3.8,3.8,0,0,1-2,.42h0a1.5,1.5,0,0,1-1.35-.91c-.37-1,.53-2.45,2-3.19a3.12,3.12,0,0,1,1.11-.27A7.78,7.78,0,0,1,3100,217.88Z" transform="translate(-3024.59 -71.75)"/><path class="cls-21" d="M3092,220.16a1.14,1.14,0,0,1-1,.2,3.86,3.86,0,0,1-2.12-1.83c-.8-1.31-.71-3.66-.67-4.33,0-.12,0-.19,0-.19s2.51.66,3.45,2.21S3092.78,219.52,3092,220.16Z" transform="translate(-3024.59 -71.75)"/><path class="cls-21" d="M3095.94,225s-1.48,2.46-3.06,2.89a3.83,3.83,0,0,1-1.36.13,1.89,1.89,0,0,1-1.89-1.31c-.22-1.07.89-2.29,2.47-2.72a2.38,2.38,0,0,1,.37-.06A6.79,6.79,0,0,1,3095.94,225Z" transform="translate(-3024.59 -71.75)"/><path class="cls-21" d="M3087.08,226a1,1,0,0,1-.53,0c-.77-.25-1.51-1.38-1.8-2.87a8.27,8.27,0,0,1,.69-4.08c.1-.24.17-.39.17-.39s2.1,1.72,2.47,3.57S3088,225.71,3087.08,226Z" transform="translate(-3024.59 -71.75)"/><path class="cls-21" d="M3103,208.58s-.65,2.9-2,3.94a3.46,3.46,0,0,1-2.44.83,1.28,1.28,0,0,1-1-.61c-.52-.93.16-2.52,1.51-3.56a4.1,4.1,0,0,1,2.33-.68h0A8.07,8.07,0,0,1,3103,208.58Z" transform="translate(-3024.59 -71.75)"/><path class="cls-21" d="M3096,212.67a1.39,1.39,0,0,1-1.46.55,4,4,0,0,1-1.93-.93c-1.31-1.1-1.87-4-1.87-4l.49,0h.11a5.13,5.13,0,0,1,3.27.82C3095.89,210.15,3096.51,211.77,3096,212.67Z" transform="translate(-3024.59 -71.75)"/><path class="cls-21" d="M3099.66,193.3c-.59,1.65-1.72,2.69-2.58,2.42h0a.35.35,0,0,1-.13-.05c-.87-.43-1.06-2.19-.43-3.93A6.48,6.48,0,0,1,3099,189c.31-.2.51-.31.51-.31S3100.3,191.56,3099.66,193.3Z" transform="translate(-3024.59 -71.75)"/><path class="cls-21" d="M3095.71,196.46a1.72,1.72,0,0,1-1.93.92,3.89,3.89,0,0,1-1.44-.41c-1.49-.74-2.59-3.46-2.59-3.46A8,8,0,0,1,3092,193a3.34,3.34,0,0,1,1.69.27C3095.17,194,3096.08,195.44,3095.71,196.46Z" transform="translate(-3024.59 -71.75)"/><path class="cls-21" d="M3101.54,203.06c-.84,1.19-1.93,1.82-2.71,1.64a1,1,0,0,1-.48-.25c-.73-.7-.49-2.45.53-3.92a5.68,5.68,0,0,1,3-1.79l.59-.15S3102.56,201.59,3101.54,203.06Z" transform="translate(-3024.59 -71.75)"/><path class="cls-21" d="M3096.22,204.39a1.56,1.56,0,0,1-1.71.73,3.9,3.9,0,0,1-1.69-.64c-1.42-.91-2.27-3.75-2.27-3.75a9,9,0,0,1,1.52-.22h0a4.17,4.17,0,0,1,2.36.47C3095.9,201.9,3096.68,203.43,3096.22,204.39Z" transform="translate(-3024.59 -71.75)"/><path class="cls-21" d="M3096.19,184.3c-.31,1.62-1.22,2.75-2,2.54,0,0-.06,0-.08,0-.76-.29-1.11-1.72-.82-3.28a6.14,6.14,0,0,1,1.73-2.75l.42-.39A7.88,7.88,0,0,1,3096.19,184.3Z" transform="translate(-3024.59 -71.75)"/><path class="cls-21" d="M3093.6,189c-.16.8-1.09,1.25-2.21,1.16a5.22,5.22,0,0,1-.63-.11c-1.38-.37-2.69-2.51-2.69-2.51a6.76,6.76,0,0,1,2.52-.95,2.1,2.1,0,0,1,.83,0C3092.81,187,3093.78,188.05,3093.6,189Z" transform="translate(-3024.59 -71.75)"/><path class="cls-21" d="M3091.77,178c-.09,1.44-.73,2.55-1.45,2.5a.78.78,0,0,1-.25-.07c-.58-.28-1-1.36-.9-2.62a5.55,5.55,0,0,1,1.14-2.61c.19-.27.33-.43.33-.43A6.71,6.71,0,0,1,3091.77,178Z" transform="translate(-3024.59 -71.75)"/><path class="cls-21" d="M3090.39,182.79c0,.84-1.08,1.44-2.32,1.35H3088a5.25,5.25,0,0,1-2.54-1.72,5.73,5.73,0,0,1,2.35-1.29,1.91,1.91,0,0,1,.41,0C3089.47,181.2,3090.43,182,3090.39,182.79Z" transform="translate(-3024.59 -71.75)"/><path class="cls-21" d="M3088,178.45a1.17,1.17,0,0,1-1.32.5,3.08,3.08,0,0,1-1.26-.53c-1.05-.74-1.64-2.91-1.64-2.91a5.47,5.47,0,0,1,.93-.11,3.33,3.33,0,0,1,2,.41C3087.78,176.55,3088.34,177.73,3088,178.45Z" transform="translate(-3024.59 -71.75)"/><path class="cls-29" d="M3099.39,217.88s-1.09,2.72-2.59,3.46a4,4,0,0,1-1.43.42h0a1.5,1.5,0,0,1-1.35-.91c-.37-1,.53-2.45,2-3.19a3.12,3.12,0,0,1,1.11-.27A8.42,8.42,0,0,1,3099.39,217.88Z" transform="translate(-3024.59 -71.75)"/><path class="cls-29" d="M3091.42,220.16a.91.91,0,0,1-.39.2,3.86,3.86,0,0,1-2.12-1.83c-.8-1.31-.71-3.66-.67-4.33a5.8,5.8,0,0,1,2.87,2C3092.06,217.75,3092.19,219.52,3091.42,220.16Z" transform="translate(-3024.59 -71.75)"/><path class="cls-29" d="M3095.35,225s-1.48,2.46-3.06,2.89a4.27,4.27,0,0,1-.77.13,1.89,1.89,0,0,1-1.89-1.31c-.22-1.07.89-2.29,2.47-2.72a2.38,2.38,0,0,1,.37-.06A7.74,7.74,0,0,1,3095.35,225Z" transform="translate(-3024.59 -71.75)"/><path class="cls-29" d="M3086.55,226c-.77-.25-1.51-1.38-1.8-2.87a8.27,8.27,0,0,1,.69-4.08,6.82,6.82,0,0,1,2,3.18C3087.85,224,3087.43,225.64,3086.55,226Z" transform="translate(-3024.59 -71.75)"/><path class="cls-29" d="M3102.39,208.58s-.66,2.9-2,3.94a3.88,3.88,0,0,1-1.85.83,1.28,1.28,0,0,1-1-.61c-.52-.93.16-2.52,1.51-3.56a4.1,4.1,0,0,1,2.33-.68h0A6.93,6.93,0,0,1,3102.39,208.58Z" transform="translate(-3024.59 -71.75)"/><path class="cls-29" d="M3095.37,212.67a1.21,1.21,0,0,1-.87.55,4,4,0,0,1-1.93-.93c-1.31-1.1-1.87-4-1.87-4l.49,0h.11a4.67,4.67,0,0,1,2.69.82C3095.3,210.15,3095.92,211.77,3095.37,212.67Z" transform="translate(-3024.59 -71.75)"/><path class="cls-29" d="M3099.07,193.3a3.74,3.74,0,0,1-2,2.42h0a.35.35,0,0,1-.13-.05c-.87-.43-1.06-2.19-.43-3.93A6.48,6.48,0,0,1,3099,189,8.55,8.55,0,0,1,3099.07,193.3Z" transform="translate(-3024.59 -71.75)"/><path class="cls-29" d="M3095.12,196.46a1.51,1.51,0,0,1-1.34.92,3.89,3.89,0,0,1-1.44-.41c-1.49-.74-2.59-3.46-2.59-3.46A8,8,0,0,1,3092,193a2.7,2.7,0,0,1,1.09.27C3094.58,194,3095.49,195.44,3095.12,196.46Z" transform="translate(-3024.59 -71.75)"/><path class="cls-29" d="M3100.94,203.06a3.78,3.78,0,0,1-2.11,1.64,1,1,0,0,1-.48-.25c-.73-.7-.49-2.45.53-3.92a5.68,5.68,0,0,1,3-1.79C3101.87,199.35,3101.83,201.78,3100.94,203.06Z" transform="translate(-3024.59 -71.75)"/><path class="cls-29" d="M3095.63,204.39a1.37,1.37,0,0,1-1.12.73,3.9,3.9,0,0,1-1.69-.64c-1.42-.91-2.27-3.75-2.27-3.75a9,9,0,0,1,1.52-.22h0a3.54,3.54,0,0,1,1.76.47C3095.3,201.9,3096.09,203.43,3095.63,204.39Z" transform="translate(-3024.59 -71.75)"/><path class="cls-29" d="M3095.6,184.3a3.31,3.31,0,0,1-1.52,2.51c-.76-.29-1.11-1.72-.82-3.28a6.14,6.14,0,0,1,1.73-2.75A7,7,0,0,1,3095.6,184.3Z" transform="translate(-3024.59 -71.75)"/><path class="cls-29" d="M3093,189a1.68,1.68,0,0,1-1.62,1.16,5.22,5.22,0,0,1-.63-.11c-1.38-.37-2.69-2.51-2.69-2.51a6.76,6.76,0,0,1,2.52-.95l.24,0C3092.22,187,3093.19,188.05,3093,189Z" transform="translate(-3024.59 -71.75)"/><path class="cls-29" d="M3091.17,178a2.85,2.85,0,0,1-1.1,2.43c-.58-.28-1-1.36-.9-2.62a5.55,5.55,0,0,1,1.14-2.61A5.69,5.69,0,0,1,3091.17,178Z" transform="translate(-3024.59 -71.75)"/><path class="cls-29" d="M3089.79,182.79c0,.72-.79,1.26-1.77,1.35a5.25,5.25,0,0,1-2.54-1.72,5.73,5.73,0,0,1,2.35-1.29C3089,181.28,3089.84,182,3089.79,182.79Z" transform="translate(-3024.59 -71.75)"/><path class="cls-29" d="M3087.38,178.45a1,1,0,0,1-.74.5,3.08,3.08,0,0,1-1.26-.53c-1.05-.74-1.64-2.91-1.64-2.91a5.47,5.47,0,0,1,.93-.11,2.84,2.84,0,0,1,1.46.41C3087.18,176.55,3087.74,177.73,3087.38,178.45Z" transform="translate(-3024.59 -71.75)"/><path class="cls-21" d="M3043,220.32c-.37,1.07-1.88,1.3-3.38.52l-.17-.1c-1.4-.89-2.42-3.53-2.42-3.53a6.14,6.14,0,0,1,3.67-.33l.27.11C3042.49,217.77,3043.4,219.26,3043,220.32Z" transform="translate(-3024.59 -71.75)"/><path class="cls-21" d="M3048.15,217.9c-.94,1.61-2.34,2.38-3.11,1.71l-.05-.06c-.72-.73-.56-2.52.36-4.08a5.85,5.85,0,0,1,2.91-2.13c.33-.12.55-.18.55-.18S3049.09,216.28,3048.15,217.9Z" transform="translate(-3024.59 -71.75)"/><path class="cls-21" d="M3047.43,226.5c-.22,1.13-1.67,1.68-3.26,1.23a2.38,2.38,0,0,1-.7-.34,9.25,9.25,0,0,1-2.36-2.68s2.26-1.51,3.84-1.06l.47.16C3046.75,224.36,3047.62,225.49,3047.43,226.5Z" transform="translate(-3024.59 -71.75)"/><path class="cls-21" d="M3052.32,222.67c-.37,1.93-1.41,3.28-2.34,3a1,1,0,0,1-.42-.25c-.63-.61-.89-2.11-.59-3.72a7.54,7.54,0,0,1,2.14-3.42l.34-.33S3052.69,220.74,3052.32,222.67Z" transform="translate(-3024.59 -71.75)"/><path class="cls-21" d="M3039.47,211.82c-.45.84-1.65.87-2.86.15h0a3.46,3.46,0,0,1-.52-.36c-1.35-1.09-2-4.14-2-4.14a6.92,6.92,0,0,1,3.13.21,2.71,2.71,0,0,1,.78.43C3039.31,209.19,3040,210.85,3039.47,211.82Z" transform="translate(-3024.59 -71.75)"/><path class="cls-21" d="M3046.36,207.13s-.57,3.07-1.89,4.23c-1.16,1-2.47,1.27-3.14.67a.94.94,0,0,1-.24-.28c-.56-.95.07-2.64,1.38-3.8a4.93,4.93,0,0,1,3.25-.86C3046.11,207.1,3046.36,207.13,3046.36,207.13Z" transform="translate(-3024.59 -71.75)"/><path class="cls-21" d="M3040.11,193.93a1.16,1.16,0,0,1-1.25-.23,4.81,4.81,0,0,1-1.48-2.26c-.58-1.67,0-4.27.17-4.74a.17.17,0,0,0,0-.07s2.34,1.34,3,3.17S3041,193.47,3040.11,193.93Z" transform="translate(-3024.59 -71.75)"/><path class="cls-21" d="M3047.31,191.66s-1.1,2.84-2.59,3.61a2.82,2.82,0,0,1-2.95.09,1.3,1.3,0,0,1-.44-.61c-.36-1.06.55-2.55,2.05-3.33a4.84,4.84,0,0,1,3.32,0C3047.07,191.56,3047.31,191.66,3047.31,191.66Z" transform="translate(-3024.59 -71.75)"/><path class="cls-21" d="M3038.69,203.13c-.44.43-1.12.38-1.83-.08a4.7,4.7,0,0,1-1.36-1.38c-1-1.54-.92-4.68-.92-4.68a8.22,8.22,0,0,1,1.63.54,4.59,4.59,0,0,1,1.95,1.49C3039.19,200.56,3039.42,202.4,3038.69,203.13Z" transform="translate(-3024.59 -71.75)"/><path class="cls-21" d="M3046.5,199.24s-.85,3-2.27,3.92c-1.16.78-2.38.9-3.05.36a1.19,1.19,0,0,1-.35-.45c-.46-1,.32-2.61,1.74-3.57a4.91,4.91,0,0,1,3.31-.4C3046.26,199.17,3046.5,199.24,3046.5,199.24Z" transform="translate(-3024.59 -71.75)"/><path class="cls-21" d="M3042.89,184.67a1,1,0,0,1-.89-.28,4.22,4.22,0,0,1-1.14-2.39,8,8,0,0,1,.7-3.9,1.08,1.08,0,0,1,.08-.2,7.19,7.19,0,0,1,2.14,3.3C3044.1,182.89,3043.7,184.44,3042.89,184.67Z" transform="translate(-3024.59 -71.75)"/><path class="cls-21" d="M3049,185.38s-1.31,2.25-2.7,2.63a2.73,2.73,0,0,1-2.31-.27,1.29,1.29,0,0,1-.53-.82c-.18-1,.79-2.1,2.18-2.49a3.77,3.77,0,0,1,2.3.37A7.72,7.72,0,0,1,3049,185.38Z" transform="translate(-3024.59 -71.75)"/><path class="cls-21" d="M3046.73,178a.8.8,0,0,1-.64-.29,3.69,3.69,0,0,1-.8-2.33,6.49,6.49,0,0,1,1-3.1l.16-.28a6.76,6.76,0,0,1,1.47,3.17C3048,176.71,3047.45,178,3046.73,178Z" transform="translate(-3024.59 -71.75)"/><path class="cls-21" d="M3051.59,180s-1.37,1.7-2.61,1.8a2.55,2.55,0,0,1-1.71-.42,1.32,1.32,0,0,1-.6-1c0-.88.92-1.67,2.15-1.77a2.37,2.37,0,0,1,1,.18A6.7,6.7,0,0,1,3051.59,180Z" transform="translate(-3024.59 -71.75)"/><path class="cls-21" d="M3053.33,172.78s-.59,2.28-1.65,3.05-1.92.78-2.4.28a.94.94,0,0,1-.18-.25c-.37-.75.19-2,1.25-2.76a3.48,3.48,0,0,1,2.34-.42A3.89,3.89,0,0,1,3053.33,172.78Z" transform="translate(-3024.59 -71.75)"/><path class="cls-29" d="M3042.45,220c-.34,1-1.62,1.24-3,.7-1.4-.89-2.42-3.53-2.42-3.53a6.14,6.14,0,0,1,3.67-.33C3042,217.68,3042.8,219,3042.45,220Z" transform="translate(-3024.59 -71.75)"/><path class="cls-29" d="M3047.57,217.61c-.76,1.3-1.8,2-2.58,1.94-.72-.73-.56-2.52.36-4.08a5.85,5.85,0,0,1,2.91-2.13A9.2,9.2,0,0,1,3047.57,217.61Z" transform="translate(-3024.59 -71.75)"/><path class="cls-29" d="M3046.85,226.21c-.21,1.13-1.67,1.68-3.25,1.23a.35.35,0,0,1-.13-.05,9.25,9.25,0,0,1-2.36-2.68s2.26-1.51,3.84-1.06l.47.16A2.52,2.52,0,0,1,3046.85,226.21Z" transform="translate(-3024.59 -71.75)"/><path class="cls-29" d="M3051.74,222.38c-.34,1.83-1.3,3.14-2.18,3.06-.63-.61-.89-2.11-.59-3.72a7.54,7.54,0,0,1,2.14-3.42A8.68,8.68,0,0,1,3051.74,222.38Z" transform="translate(-3024.59 -71.75)"/><path class="cls-29" d="M3038.9,211.54c-.38.7-1.3.84-2.29.43h0a3.46,3.46,0,0,1-.52-.36c-1.35-1.09-2-4.14-2-4.14a6.92,6.92,0,0,1,3.13.21l.2.14C3038.74,208.9,3039.42,210.56,3038.9,211.54Z" transform="translate(-3024.59 -71.75)"/><path class="cls-29" d="M3045.72,207.09c-.16.76-.73,3-1.82,4a3.19,3.19,0,0,1-2.57,1,.94.94,0,0,1-.24-.28c-.56-.95.07-2.64,1.38-3.8A4.93,4.93,0,0,1,3045.72,207.09Z" transform="translate(-3024.59 -71.75)"/><path class="cls-29" d="M3039.53,193.64a1,1,0,0,1-.67.06,4.81,4.81,0,0,1-1.48-2.26c-.58-1.67,0-4.27.17-4.74a6.66,6.66,0,0,1,2.41,2.81C3040.6,191.34,3040.4,193.18,3039.53,193.64Z" transform="translate(-3024.59 -71.75)"/><path class="cls-29" d="M3046.7,191.45c-.2.48-1.22,2.84-2.56,3.54a3.39,3.39,0,0,1-2.37.37,1.3,1.3,0,0,1-.44-.61c-.36-1.06.55-2.55,2.05-3.33A4.84,4.84,0,0,1,3046.7,191.45Z" transform="translate(-3024.59 -71.75)"/><path class="cls-29" d="M3038.11,202.84a1.16,1.16,0,0,1-1.25.21,4.7,4.7,0,0,1-1.36-1.38c-1-1.54-.92-4.68-.92-4.68a8.22,8.22,0,0,1,1.63.54,4.06,4.06,0,0,1,1.37,1.2C3038.61,200.27,3038.85,202.11,3038.11,202.84Z" transform="translate(-3024.59 -71.75)"/><path class="cls-29" d="M3045.88,199.1c-.2.63-1,3-2.23,3.77a3.25,3.25,0,0,1-2.47.65,1.19,1.19,0,0,1-.35-.45c-.46-1,.32-2.61,1.74-3.57A4.91,4.91,0,0,1,3045.88,199.1Z" transform="translate(-3024.59 -71.75)"/><path class="cls-29" d="M3042.31,184.38a.8.8,0,0,1-.31,0,4.22,4.22,0,0,1-1.14-2.39,8,8,0,0,1,.7-3.9,6.36,6.36,0,0,1,1.65,2.8C3043.52,182.6,3043.12,184.16,3042.31,184.38Z" transform="translate(-3024.59 -71.75)"/><path class="cls-29" d="M3048.42,185.1s-1.32,2.24-2.7,2.62a3.12,3.12,0,0,1-1.74,0,1.29,1.29,0,0,1-.53-.82c-.18-1,.79-2.1,2.18-2.49a3.77,3.77,0,0,1,2.3.37Z" transform="translate(-3024.59 -71.75)"/><path class="cls-29" d="M3046.16,177.74h-.07a3.69,3.69,0,0,1-.8-2.33,6.49,6.49,0,0,1,1-3.1,5.69,5.69,0,0,1,1,2.61C3047.39,176.43,3046.88,177.69,3046.16,177.74Z" transform="translate(-3024.59 -71.75)"/><path class="cls-29" d="M3051,179.75s-1.37,1.69-2.6,1.79a2.8,2.8,0,0,1-1.14-.13,1.32,1.32,0,0,1-.6-1c0-.88.92-1.67,2.15-1.77a2.37,2.37,0,0,1,1,.18A6.76,6.76,0,0,1,3051,179.75Z" transform="translate(-3024.59 -71.75)"/><path class="cls-29" d="M3052.69,172.68a6.07,6.07,0,0,1-1.58,2.86,2.52,2.52,0,0,1-1.83.57.94.94,0,0,1-.18-.25c-.37-.75.19-2,1.25-2.76A3.48,3.48,0,0,1,3052.69,172.68Z" transform="translate(-3024.59 -71.75)"/><polygon class="cls-30" points="56.65 0 38.86 85.73 41.78 85.73 61.86 0 56.65 0"/><polygon class="cls-31" points="61.86 0 41.78 85.73 45.61 85.73 67.88 0 61.86 0"/><polygon class="cls-12" points="67.88 0 45.61 85.73 47.23 85.73 73.15 0 67.88 0"/><polygon class="cls-32" points="67.88 0 45.61 85.73 47.23 85.73 73.15 0 67.88 0"/><path class="cls-33" d="M3107.15,201.18a38.57,38.57,0,0,1-38.53,38.52q-1.57,0-3.12-.12a38.61,38.61,0,0,1-32.25-23.13c57.17,13.35,53.85-39.13,52.83-48.44a5.61,5.61,0,0,0,.25-1,37.4,37.4,0,0,1,16.16,15.87A38.26,38.26,0,0,1,3107.15,201.18Z" transform="translate(-3024.59 -71.75)"/><path class="cls-22" d="M3107.15,201.18a38.57,38.57,0,0,1-38.53,38.52q-1.57,0-3.12-.12c26.14-9.06,34.05-36.9,36.44-52.62l1.77-1.69A36.09,36.09,0,0,1,3107.15,201.18Z" transform="translate(-3024.59 -71.75)"/><g class="cls-34"><path class="cls-35" d="M3098.09,230.09a41.41,41.41,0,0,1-7.31,5.93l-.46-1.83-.26-1-2.15.26-5.07-4.59-50-42-1.12-4.24-3.66,1.2a8.36,8.36,0,0,0,.51-1.16c.31-.67.64-1.34,1-2a39.6,39.6,0,0,1,3-4.83l4.34-1.08.22,4.25,48.4,39.77,1.36,1.24v0h0l1.92,1.75,2.71,2.45h0l2.6,2.37.32.27.43.4h2l.16.43Z" transform="translate(-3024.59 -71.75)"/></g><g class="cls-36"><path class="cls-37" d="M3103.57,223.18a37.63,37.63,0,0,1-2.73,3.8l-1.12-2.91,0-.12h-2.17l-57.34-48.74-.42-3.56-3.87.15.44-.46c.48-.5,1-1,1.48-1.45.36-.34.74-.68,1.12-1l4.37-.33,0,3.46,56,47.25.7.65,2.06-.07h.27Z" transform="translate(-3024.59 -71.75)"/></g></g></g></svg>