<svg id="Layer_1" data-name="Layer 1" xmlns="http://www.w3.org/2000/svg" viewBox="0 0 159.2 139.8"><path d="M11.07,419.39c-10.86,0-20.69,0-30.51,0-9.39,0-14.17-4.79-14.22-14.12,0-7.49-.07-15,0-22.49.09-8,5.06-13,13.17-13.13,10.32-.12,20.64,0,31.81,0,0-4.22.07-8.14,0-12.06-.12-5.34,1.8-9.49,6.79-11.75,5.24-2.38,9.57-.68,13.58,3.12,12.93,12.28,26,24.42,39,36.64,6.47,6.09,6.46,11.75,0,17.89Q51.07,422,31.43,440.58c-3.85,3.63-8.3,4.89-13.29,2.64-4.77-2.16-6.87-6.07-6.8-11.23,0-2.5,0-5,0-7.5C11.3,422.88,11.17,421.28,11.07,419.39Zm55.6-24.94c-14.05-13.18-27.72-26-41.46-38.81-.72-.67-2.46-1.27-3-.88A4.65,4.65,0,0,0,20.55,358c-.18,4.66-.05,9.33-.09,14-.05,5.93-1.46,7.39-7.34,7.42-11,.05-22,.1-33,0-3.44-.05-4.8,1.22-4.72,4.67.14,6.66.26,13.33,0,20-.19,4.42,1.44,5.79,5.78,5.69,10.65-.25,21.31-.12,32-.07,5.87,0,7.27,1.49,7.32,7.44,0,4-.16,8,.08,12,.11,1.81,1,3.56,1.59,5.34,1.66-.89,3.6-1.48,4.94-2.71,8.94-8.23,17.77-16.59,26.62-24.92C57.9,402.79,62.08,398.8,66.67,394.45Z" transform="translate(83.7 -324.6)"/><path d="M-83.66,394.26c0-14.32,0-28.64,0-43,.05-16.64,10.11-26.61,26.86-26.68,8.32,0,16.65,0,25,0,3.6,0,7.16.51,7.07,5s-3.74,4.81-7.29,4.8q-13.23,0-26.47,0c-9.75.05-16,6.08-16,15.88q-.12,44.21,0,88.42c0,9.81,6.24,15.85,16,15.9q13.23.06,26.48,0c3.54,0,7.2.3,7.3,4.78s-3.45,5.09-7.06,5c-10.46-.23-21,.4-31.37-.91-13-1.66-20.33-11.1-20.46-24.26C-83.77,424.23-83.66,409.25-83.66,394.26Z" transform="translate(83.7 -324.6)"/></svg>