<svg id="Layer_1" data-name="Layer 1" xmlns="http://www.w3.org/2000/svg" viewBox="0 0 275.5 203.04"><defs><style>.cls-1{fill:#231f20;}</style></defs><path d="M-364.46,357.48c-2.37-6-2.89-11.14-.86-17.16a73,73,0,0,0,3.66-21.95c.16-12.06-8.1-19.65-20.16-20.29a57.16,57.16,0,0,0-27.13,5.54c-40.3,18.56-70.05,48-88.37,88.37-3.61,7.95-5.25,17.24-5.81,26-.82,13.09,7.57,21.66,20.73,21.66A66.23,66.23,0,0,0-460.95,436c6.06-2.11,11.19-1.27,17.75,1-10.88,5.59-21.35,9.41-32.73,10.35a48.41,48.41,0,0,1-11-.25c-15.9-2.36-24.92-14.39-24.1-32,.66-14,5.89-26.52,12.24-38.74a17.7,17.7,0,0,0,2-7.5c.73-35.73,28.08-63.34,63.78-64.4A22,22,0,0,0-424,302c12.59-6.36,25.43-11.74,39.84-11.74,18.86,0,30.23,11.29,30.51,30.11C-353.53,331.32-358.31,348.09-364.46,357.48Zm-122.65-1.65,41.83-41.65C-463.59,316-485.52,337.72-487.11,355.83Z" transform="translate(570.1 -290.29)"/><path d="M-419.55,313.67c5.38-4.73,10.21-5.46,16.56-2.12,31.95,16.8,44.39,56.07,27.2,87.81-1.91,3.53-2.47,6.45-.91,10.23,2.21,5.36,3.8,11,5.7,16.48,1.15,3.32,1.72,6.54-1.37,9.16-2.87,2.45-5.81,1.64-8.84.14-5.22-2.58-10.6-4.85-15.74-7.58-3.27-1.73-6-1.58-9.38-.08a64.24,64.24,0,0,1-82.81-28.54c-4.42-8.25-4.37-9.09,1.32-17.51.59,1.71,1.09,3.15,1.57,4.6A56.58,56.58,0,0,0-409,420.37c5.37-2.44,10.05-2.47,15.15.32,4.49,2.46,9.25,4.44,15.22,7.27-2.09-6.12-3.58-11.14-5.52-16-2.27-5.68-1.66-10.61,1.35-16.09,17.24-31.34,1.56-69.93-32.57-80.86C-416.65,314.64-417.9,314.21-419.55,313.67Z" transform="translate(570.1 -290.29)"/><path d="M-432.25,379.87a7.18,7.18,0,0,1-7.18-6.83,7.26,7.26,0,0,1,6.94-7.6,7.26,7.26,0,0,1,7.18,6.86A7.19,7.19,0,0,1-432.25,379.87Z" transform="translate(570.1 -290.29)"/><path d="M-407,365.47a7.16,7.16,0,0,1,6.8,7.67,7.15,7.15,0,0,1-7.24,6.72,7.3,7.3,0,0,1-6.87-7.65A7.39,7.39,0,0,1-407,365.47Z" transform="translate(570.1 -290.29)"/><path d="M-450.37,372.61a7.31,7.31,0,0,1-7.27,7.25,7.32,7.32,0,0,1-6.87-7.14,7.18,7.18,0,0,1,7.23-7.25A7.37,7.37,0,0,1-450.37,372.61Z" transform="translate(570.1 -290.29)"/><path class="cls-1" d="M-560.48,493.1a16.31,16.31,0,0,1-5.53-.94,10.77,10.77,0,0,1-4.09-2.42l1.08-2.11a11,11,0,0,0,3.68,2.24,13.27,13.27,0,0,0,4.86.9,10.88,10.88,0,0,0,4-.61,4.76,4.76,0,0,0,2.25-1.64,3.94,3.94,0,0,0,.72-2.3,3.42,3.42,0,0,0-.87-2.44,6.06,6.06,0,0,0-2.27-1.46,26.16,26.16,0,0,0-3.11-.94c-1.13-.27-2.27-.56-3.4-.87a14.49,14.49,0,0,1-3.13-1.24,6.57,6.57,0,0,1-2.29-2,5.84,5.84,0,0,1-.87-3.35,6.46,6.46,0,0,1,1-3.53,7.13,7.13,0,0,1,3.12-2.59,12.94,12.94,0,0,1,5.4-1,15.62,15.62,0,0,1,4.33.61,12.73,12.73,0,0,1,3.7,1.68l-.92,2.19a12.08,12.08,0,0,0-3.54-1.63,13.22,13.22,0,0,0-3.6-.52,10.09,10.09,0,0,0-3.85.63,4.9,4.9,0,0,0-2.24,1.68,4.13,4.13,0,0,0-.72,2.39,3.42,3.42,0,0,0,.87,2.44,5.76,5.76,0,0,0,2.29,1.44,30,30,0,0,0,3.13.93c1.13.27,2.26.56,3.38.88a16,16,0,0,1,3.11,1.24,6.41,6.41,0,0,1,2.29,2,5.66,5.66,0,0,1,.87,3.29,6.3,6.3,0,0,1-1,3.49,7.18,7.18,0,0,1-3.16,2.59A13,13,0,0,1-560.48,493.1Z" transform="translate(570.1 -290.29)"/><path class="cls-1" d="M-548.46,475.65v-2.19h12v2.19Zm9.17,17.42a5.71,5.71,0,0,1-4.21-1.48,5.64,5.64,0,0,1-1.48-4.18V469.17h2.62v18.09a3.71,3.71,0,0,0,.87,2.63,3.28,3.28,0,0,0,2.5.92,4.19,4.19,0,0,0,2.88-1l.93,1.89a4.8,4.8,0,0,1-1.87,1A7.37,7.37,0,0,1-539.29,493.07Z" transform="translate(570.1 -290.29)"/><path class="cls-1" d="M-522.39,493.07a9.48,9.48,0,0,1-4.32-.93,6.51,6.51,0,0,1-2.87-2.77,9.48,9.48,0,0,1-1-4.62V473.46H-528v11a6.47,6.47,0,0,0,1.53,4.68,5.75,5.75,0,0,0,4.31,1.57,7.24,7.24,0,0,0,3.54-.83,5.59,5.59,0,0,0,2.29-2.42,8.47,8.47,0,0,0,.79-3.81V473.46h2.63v19.42h-2.52v-5.32l.41,1a7.19,7.19,0,0,1-2.86,3.34A8.4,8.4,0,0,1-522.39,493.07Z" transform="translate(570.1 -290.29)"/><path class="cls-1" d="M-497.83,493.07a9.79,9.79,0,0,1-5-1.26,9,9,0,0,1-3.46-3.5,10.33,10.33,0,0,1-1.26-5.16,10.29,10.29,0,0,1,1.26-5.17,8.92,8.92,0,0,1,3.46-3.46,9.88,9.88,0,0,1,5-1.24,9,9,0,0,1,4.57,1.15,8.36,8.36,0,0,1,3.22,3.34,11.11,11.11,0,0,1,1.2,5.38,11.27,11.27,0,0,1-1.18,5.37,8.36,8.36,0,0,1-3.2,3.38A9,9,0,0,1-497.83,493.07Zm.19-2.33a7.29,7.29,0,0,0,3.71-.95,6.64,6.64,0,0,0,2.59-2.66,8.13,8.13,0,0,0,.95-4,8.09,8.09,0,0,0-.95-4,6.71,6.71,0,0,0-2.59-2.64,7.29,7.29,0,0,0-3.71-.95,7.13,7.13,0,0,0-3.66.95,6.85,6.85,0,0,0-2.59,2.64,8,8,0,0,0-1,4,8,8,0,0,0,1,4,6.77,6.77,0,0,0,2.59,2.66A7.13,7.13,0,0,0-497.64,490.74Zm7.32,2.14V487l.26-3.92-.37-3.92V465.44h2.63v27.44Z" transform="translate(570.1 -290.29)"/><path class="cls-1" d="M-472.23,493.07a10.78,10.78,0,0,1-5.33-1.28,9.25,9.25,0,0,1-3.59-3.51,10.08,10.08,0,0,1-1.29-5.13,10.25,10.25,0,0,1,1.24-5.1,9.12,9.12,0,0,1,3.4-3.49,9.38,9.38,0,0,1,4.86-1.28,9.46,9.46,0,0,1,4.87,1.24,8.75,8.75,0,0,1,3.34,3.48,10.51,10.51,0,0,1,1.22,5.15c0,.13,0,.26,0,.39a3,3,0,0,0,0,.43h-16.9v-2h15.49l-1,.78a7.72,7.72,0,0,0-.91-3.76,6.61,6.61,0,0,0-2.46-2.57,6.83,6.83,0,0,0-3.59-.92,6.94,6.94,0,0,0-3.58.92,6.45,6.45,0,0,0-2.48,2.59,8,8,0,0,0-.89,3.81v.41a7.63,7.63,0,0,0,1,3.9,6.78,6.78,0,0,0,2.74,2.62,8.34,8.34,0,0,0,4,.95,8.63,8.63,0,0,0,3.31-.63,6.84,6.84,0,0,0,2.64-1.93l1.48,1.71a8.34,8.34,0,0,1-3.23,2.36A10.83,10.83,0,0,1-472.23,493.07Z" transform="translate(570.1 -290.29)"/><path class="cls-1" d="M-448.23,473.28a9,9,0,0,1,4.16.91,6.48,6.48,0,0,1,2.81,2.75,9.57,9.57,0,0,1,1,4.66v11.28h-2.63v-11a6.39,6.39,0,0,0-1.53-4.64,5.75,5.75,0,0,0-4.31-1.57,7.43,7.43,0,0,0-3.61.83,5.72,5.72,0,0,0-2.37,2.4,8.07,8.07,0,0,0-.83,3.79v10.21h-2.62V473.46h2.51v5.33l-.41-1a7.14,7.14,0,0,1,3-3.31A9.41,9.41,0,0,1-448.23,473.28Z" transform="translate(570.1 -290.29)"/><path class="cls-1" d="M-436.17,475.65v-2.19h12v2.19Zm9.17,17.42a5.74,5.74,0,0,1-4.22-1.48,5.68,5.68,0,0,1-1.48-4.18V469.17h2.63v18.09a3.71,3.71,0,0,0,.87,2.63,3.28,3.28,0,0,0,2.49.92,4.24,4.24,0,0,0,2.89-1l.92,1.89a4.76,4.76,0,0,1-1.86,1A7.42,7.42,0,0,1-427,493.07Z" transform="translate(570.1 -290.29)"/><path class="cls-1" d="M-410.17,493.33a21.13,21.13,0,0,1-6-.84,13.77,13.77,0,0,1-4.6-2.16l2-4.51a14.35,14.35,0,0,0,3.92,1.94,14.82,14.82,0,0,0,4.63.76,9.32,9.32,0,0,0,2.86-.37,3.6,3.6,0,0,0,1.61-1,2.12,2.12,0,0,0,.52-1.43,1.94,1.94,0,0,0-.81-1.64,6.74,6.74,0,0,0-2.17-1c-.9-.26-1.88-.51-2.94-.74s-2.13-.52-3.2-.85a13,13,0,0,1-3-1.33A6.29,6.29,0,0,1-419.4,478a6.59,6.59,0,0,1-.8-3.39,7.3,7.3,0,0,1,1.19-4.05,8.13,8.13,0,0,1,3.6-2.92,14.85,14.85,0,0,1,6.09-1.09,20.19,20.19,0,0,1,4.82.59,14.39,14.39,0,0,1,4.16,1.7l-1.88,4.51a15.25,15.25,0,0,0-3.59-1.49,13.32,13.32,0,0,0-3.55-.5,8.58,8.58,0,0,0-2.85.39,3.2,3.2,0,0,0-1.57,1.05,2.42,2.42,0,0,0-.5,1.48,2,2,0,0,0,.81,1.66,6,6,0,0,0,2.15,1c.89.24,1.87.47,3,.7s2.16.53,3.22.87a14.66,14.66,0,0,1,2.92,1.32,6.23,6.23,0,0,1,2.16,2.14,6.24,6.24,0,0,1,.83,3.35,7.06,7.06,0,0,1-1.2,4,8.35,8.35,0,0,1-3.64,2.93A14.75,14.75,0,0,1-410.17,493.33Z" transform="translate(570.1 -290.29)"/><path class="cls-1" d="M-395.12,492.88V467h11.21a14.62,14.62,0,0,1,6,1.13,8.75,8.75,0,0,1,3.88,3.24,9,9,0,0,1,1.37,5,9,9,0,0,1-1.37,5,9,9,0,0,1-3.88,3.24,14.45,14.45,0,0,1-6,1.14h-7.92l2.74-2.7v9.84Zm6-9.17-2.74-2.85h7.58a6.3,6.3,0,0,0,4.15-1.18,4.13,4.13,0,0,0,1.4-3.33,4.08,4.08,0,0,0-1.4-3.31,6.36,6.36,0,0,0-4.15-1.17h-7.58l2.74-2.84Z" transform="translate(570.1 -290.29)"/><path class="cls-1" d="M-373.12,492.88-361.61,467h5.92l11.61,25.89h-6.29l-9.5-22.86h2.4L-367,492.88Zm5.81-5.55,1.52-4.54h13.39l1.55,4.54Z" transform="translate(570.1 -290.29)"/><path class="cls-1" d="M-329.36,493.33a15.6,15.6,0,0,1-5.57-1,13.1,13.1,0,0,1-4.45-2.8,12.76,12.76,0,0,1-2.94-4.25,13.29,13.29,0,0,1-1.06-5.36,13.3,13.3,0,0,1,1.06-5.37,12.84,12.84,0,0,1,2.95-4.25,13.25,13.25,0,0,1,4.48-2.79,15.56,15.56,0,0,1,5.57-1,15.57,15.57,0,0,1,6.1,1.16,11.89,11.89,0,0,1,4.58,3.42l-3.88,3.55a8.76,8.76,0,0,0-2.94-2.29,8.24,8.24,0,0,0-3.57-.77,8.77,8.77,0,0,0-3.33.61A7.65,7.65,0,0,0-335,474a7.56,7.56,0,0,0-1.72,2.62,8.87,8.87,0,0,0-.61,3.37,8.86,8.86,0,0,0,.61,3.36,7.69,7.69,0,0,0,1.72,2.63,7.8,7.8,0,0,0,2.62,1.72,8.77,8.77,0,0,0,3.33.61,8.12,8.12,0,0,0,3.57-.8,9,9,0,0,0,2.94-2.31l3.88,3.55a11.93,11.93,0,0,1-4.58,3.44A15.32,15.32,0,0,1-329.36,493.33Z" transform="translate(570.1 -290.29)"/><path class="cls-1" d="M-308.69,488.07h14.09v4.81h-20V467h19.56v4.81h-13.61Zm-.44-10.69h12.46v4.7h-12.46Z" transform="translate(570.1 -290.29)"/></svg>