<svg id="Layer_1" data-name="Layer 1" xmlns="http://www.w3.org/2000/svg" viewBox="0 0 1178.29 867.98"><path d="M-2355-264.21c-10.79-30.43-30.64-52.6-60.45-65.59-14.31-6.23-29.24-9.87-44.77-11.93h14.95c-.58-.24-1.15-.49-1.71-.76h-60.29c-.58.27-1.16.52-1.74.77h14.69c-32.42,4.05-52,7.55-77.86,17.69-24.46,9.6-48.52,20.3-72.35,31.4-15.84,7.37-32,11.69-49.48,12.32a260.34,260.34,0,0,0-64.86,10.87c-65.7,19.51-117.64,57.72-155.06,115.14-27.53,42.24-42.18,88.9-44.32,139.22A119.72,119.72,0,0,1-2971.84,36c-13.42,25.89-25.48,52.42-33.86,80.46-10.8,36.19-17.65,72.81-12.35,110.79,3.25,23.25,11.25,44.59,26.48,62.66,19.62,23.27,45.41,35.42,75.11,39.71,26.86,3.88,53.52,1.65,80-3.65,36.72-7.36,71-21.36,104.26-38.22a10.06,10.06,0,0,0,1.45-1.19c-20.38-9.9-49.69-12.29-70.58-5.61-19.38,6.2-38.9,11.63-59.16,14.09-19.73,2.4-39.47,4.33-59.2.41-37.11-7.38-60.86-31.77-65.24-69.15-1.64-14-.25-28.59,1.07-42.78,2.5-26.95,7.65-53.54,18.21-78.55,21.27-50.34,48.16-97.61,79.75-142.23a717.23,717.23,0,0,1,128.14-138.12c53.25-44.14,111.79-80.09,174.67-108.8A288.83,288.83,0,0,1-2540-299.95c28.63-7.9,58-11.43,87.51-6.39,32.13,5.48,56,21.93,67.33,53.89,5.74,16.21,4.67,32.83,3.67,49.47-1.71,28.61-8.63,56.18-16.72,83.54-6.57,22.21-2.59,43.57,5.75,65.16,1.54-2.33,2.82-4.07,3.89-5.92,2.41-4.19,4.89-8.35,7-12.66,16-32.34,26.15-66.61,32.14-102.07C-2344.33-205-2344.62-235-2355-264.21ZM-2916-62l-1.16-.47c.5-3.47.86-7,1.52-10.41,4.2-22,13.75-41.67,25.92-60.18,28.16-42.81,65.14-75.43,112.33-95.95a117.84,117.84,0,0,1,36.24-9.7Z" transform="translate(3271.78 342.49)"/><path d="M-2179.06,525.49V415.18h83.25v20.15h-57.69v23.95h50.84V479h-51v26.11h6c16.32,0,32.65.1,49-.08,3.84,0,5.46,1,5.14,5-.42,5.12-.38,10.28-.53,15.42Z" transform="translate(3271.78 342.49)"/><path d="M-2524.06,525.49c.12-2,.34-4,.34-6q0-49.18,0-98.38v-5.49c.95-.49,1.24-.77,1.52-.76,19,.19,38-.38,56.86.89,13.52.9,25.46,6.8,32.58,19.35,14.78,26.06-2.37,56.75-33.15,59.18-8.78.69-17.64.36-26.45.52-1.79,0-3.57.17-5.72.27v30.37Zm26.09-50.44c10.44-.7,20.45-.57,30.15-2.26s14.28-8.63,14.29-17.75c0-9.41-4.79-17-14.25-18.27-9.84-1.34-20-.3-30.19-.3Z" transform="translate(3271.78 342.49)"/><path d="M-2429.06,525.49c5-11.57,10-23.17,15.06-34.7,10.62-24,21.38-48,31.92-72,1.34-3.05,2.88-4.31,6.28-4.12,5.64.3,11.32.21,17,0,2.71-.09,4.16.78,5.29,3.31q23.34,52.37,46.83,104.65a14.67,14.67,0,0,1,.65,2.84h-26c-2.9-6.91-5.65-13.87-8.79-20.66-.65-1.42-2.7-3.11-4.12-3.13-15.17-.22-30.33-.19-45.5,0a5,5,0,0,0-3.8,2.16c-3.12,7.14-5.9,14.43-8.79,21.67Zm79-43.09c-5.85-14.09-11.53-27.78-17.67-42.55-6.15,14.75-11.86,28.45-17.73,42.55Z" transform="translate(3271.78 342.49)"/><path d="M-2609.06,525.49c-6.46-2.55-12.94-5-19.35-7.71a35.28,35.28,0,0,1-4.93-3.1c2.8-6.39,5.52-12.58,7.91-18,8.85,3.17,17.15,7.24,25.9,8.94,7.28,1.41,15.11.25,22.67-.24,2.12-.14,4.35-1.68,6.14-3.08,5.53-4.31,5.29-11.66-.88-14.84-5.11-2.63-10.78-4.23-16.3-6-8.85-2.82-18.1-4.64-26.62-8.23-21.29-9-20.11-35.75-7.3-48.11,7.05-6.81,15.76-10.11,25.07-11.29,16.64-2.12,32.84-.11,48,7.69.73.38,1.41.85,2.45,1.47l-7.42,17.76c-7.82-2.3-15.11-5.2-22.67-6.43-5.93-1-12.25-.32-18.28.48a15.73,15.73,0,0,0-8.16,4.33c-4.87,4.7-4.07,11.64,1.95,14.59,5.29,2.6,11.2,4,16.86,5.81,8.83,2.85,18.08,4.77,26.47,8.59,22.15,10.08,20.44,37.57,3.84,49.59-4.37,3.17-9.55,5.22-14.35,7.79Z" transform="translate(3271.78 342.49)"/><path d="M-2260.06,525.49c-6.62-3.36-13.87-5.87-19.74-10.22-18.13-13.46-24.83-32.29-21.61-54.14,3.33-22.57,16.52-37.89,38.36-44.78s42.74-4.57,61.12,10.52a33.84,33.84,0,0,1,2.53,2.41c.81.83,1.56,1.72,2.71,3l-16.09,14.93c-9.86-10.12-21.54-14.65-35.65-12a33,33,0,0,0-20.43,12.34c-10.84,13.59-9.86,35.68,2.22,48.22,13.55,14.07,32.07,13.29,53.94-2.51l15.91,14.59c-5.64,7.49-13,12.06-21.31,15.29-2,.77-4,1.56-6,2.34Z" transform="translate(3271.78 342.49)"/><path d="M-2974.06,525.49c-4.76-2.31-10-4-14.2-7-17-12.17-21.79-38.17-10.88-57.08,10.07-17.45,33-24.68,52.35-15.92,5.29,2.4,9.75,6.62,15,10.27V408.64h11.41v6q0,52.44,0,104.9c0,2,.21,4,.33,6h-11V509.12c-5.76,8.76-13.19,12.83-21,16.37Zm11.43-74.24c-17.85.09-31.16,14.19-30.95,32.79.21,18.94,13.46,32.68,31.35,32.5,18-.17,30.9-13.87,30.9-32.9C-2931.34,464.89-2944.61,451.15-2962.63,451.25Z" transform="translate(3271.78 342.49)"/><path d="M-3246.06,525.49c-6.41-2.59-13.13-4.61-19.15-7.9-8.35-4.55-8.31-6.05-2.32-14,12.24,10.32,26.51,14.4,42.26,12.65a47.88,47.88,0,0,0,15.15-4.44c6.27-3,8.58-9,8.46-15.82-.12-6.55-3.75-11.14-9.47-13.51-6.71-2.79-13.77-4.76-20.69-7-7.4-2.44-15-4.33-22.19-7.35-9.38-4-15.33-11-15.76-21.72-.45-11.08,4-19.83,13.3-25.75,15.73-10,46.39-8.12,61.42,3.65l-3.48,8.19c-4.42-1.86-8.59-3.83-12.9-5.39a52.72,52.72,0,0,0-33.33-.82c-7.93,2.29-12.78,8.21-13.43,16.14-.67,8.2,2.31,13.86,10.8,17.09,8.82,3.36,18.25,5.1,27.13,8.32,7.58,2.75,15.81,5.3,21.9,10.22,14.84,12,8.88,36.89-9.89,44.22-2.92,1.14-5.87,2.17-8.81,3.25Z" transform="translate(3271.78 342.49)"/><path d="M-2866.06,525.49c-5.64-3-11.88-5.28-16.8-9.21-15.94-12.75-19.33-38.91-7.89-56.25,11.62-17.61,34-23.33,53.34-13.6,13.72,6.92,22,23.13,20.57,40.82h-69.45c1.66,12.23,7.09,20.89,17.85,25.92a37.14,37.14,0,0,0,40.94-7.52l5.78,6.69c-5.32,7.16-12.94,10-20.34,13.15Zm-19.73-46.72h58.47c.14-15.11-12.82-27.37-28.7-27.52C-2872.57,451.1-2885.52,462.9-2885.79,478.77Z" transform="translate(3271.78 342.49)"/><path d="M-2728.06,525.49q0-23.49,0-47c0-15.84-8.82-26.22-22.75-26.86-17.33-.8-30.52,9.43-31.18,25.4s-.11,32.28-.08,48.43h-11q-.17-29.69-.3-59.36c0-7.63,0-15.26,0-23.23h10.13v13.69a32.12,32.12,0,0,0,3.15-2.6c11.62-13,34.23-16.36,49-7.1,10.13,6.37,13.79,16.36,14,27.7.26,17,.07,33.93.08,50.9Z" transform="translate(3271.78 342.49)"/><path d="M-3080.06,525.49a21.91,21.91,0,0,0-2.56-1.29c-12.06-4.35-19.33-13.31-20-25.62-1-18.4-.27-36.9-.27-55.69h10.43v5.35c0,14.66-.07,29.32.09,44,.13,12.64,7.28,21.41,18.79,23.54,14.37,2.67,27.24-3.07,31.56-14.73a47.37,47.37,0,0,0,2.89-15c.38-14.28.13-28.57.13-43.14h11v82.64h-11v-12l-18,12Z" transform="translate(3271.78 342.49)"/><path d="M-2669.06,525.49c-11.65-4.69-15.84-13.59-15.46-25.76.44-14,.1-28,.1-42v-6h-14.47v-8.93h14.26V424.6h11.23v17.9h25v8.92H-2673c-.11,2.35-.27,4.12-.27,5.88q0,21.26,0,42.5c0,15.19,11.2,21.64,24.75,14.32l2-1.1,3.89,7.66-9.43,4.81Z" transform="translate(3271.78 342.49)"/><path d="M-3150.06,525.49c-11.8-5.25-15.59-14.63-15.08-27,.56-13.64.13-27.32.13-41v-5.84h-14.64v-8.88h14.52V424.54h10.9v18h25.14v8.95h-25v17.95c0,10,0,20,0,30,0,15.69,11.58,22.21,25.37,14.33.4-.22.86-.34,1.68-.67l3.72,7.46-8.78,4.93Z" transform="translate(3271.78 342.49)"/><path d="M-2627.67-241.39c18.79-17.87,39.72-22.95,62.61-12.51,32.75,14.92,60.75,36.51,84.85,63.07,33.76,37.19,56.21,80.4,66.4,129.62,12.83,62,5,121.49-23,178.38-4.52,9.18-8.75,18.78-11.09,28.66-1.42,6-.09,13.35,1.9,19.48,8.55,26.28,17.93,52.28,26.72,78.48,2.94,8.79,4.5,17.94-.18,26.73-6.09,11.43-18.05,16.84-30.81,14a49.18,49.18,0,0,1-10.39-3.47c-23-10.93-46.13-21.66-68.85-33.17-13.79-7-27.09-7.82-41.24-1.61-28.11,12.34-57.43,20.42-88.06,23-48.62,4.08-95.35-3.72-139.65-24.36C-2861.66,215.46-2907,168.32-2935.7,105c-4.83-10.66-5.48-21.21.55-31.61,4.49-7.75,9.16-15.4,14.43-24.22,2.21,6.43,4.08,11.62,5.79,16.86,17.9,54.8,50,99.09,98.34,130.83,42,27.62,88.46,41.1,139,39.92a242.12,242.12,0,0,0,93.41-21.08c15.27-6.78,30.94-10.87,47.52-6.06a144.85,144.85,0,0,1,21.26,8.47c20.46,9.66,40.78,19.61,62.34,30-1.42-4.33-2.38-7.42-3.43-10.48q-10.84-31.38-21.73-62.75c-6.93-19.95-5.35-39.34,4.08-58.09,9-17.86,18.06-35.66,23.51-55,17.82-63.43,11.85-124.42-19.76-182.32s-80-95.73-142.43-116Z" transform="translate(3271.78 342.49)"/><path d="M-2653,11.43c-.1,16.88-13.91,30.61-30.52,30.37a30.38,30.38,0,0,1-29.81-31.07c.17-16.67,13.75-30.48,30-30.49C-2666.59-19.77-2652.86-5.65-2653,11.43Z" transform="translate(3271.78 342.49)"/><path d="M-2790.26,41.72c-16.14.27-30.36-14.06-30.51-30.74-.14-16.22,13.37-30.25,29.47-30.61C-2775-20-2760.54-6-2760.15,10.56S-2773.78,41.45-2790.26,41.72Z" transform="translate(3271.78 342.49)"/><path d="M-2545.56,10.88c.54,16.13-12.75,30.17-29,30.68-16.59.52-30.75-13.24-31.25-30.35-.44-15.38,13.77-30.25,29.43-30.77C-2559.63-20.12-2546.15-6.82-2545.56,10.88Z" transform="translate(3271.78 342.49)"/></svg>