<svg id="Layer_1" data-name="Layer 1" xmlns="http://www.w3.org/2000/svg" viewBox="0 0 1178.29 867.98"><defs><style>.cls-1{fill:#9500ff;}</style></defs><path class="cls-1" d="M-2233.6,40.3c-10.79-30.43-30.64-52.6-60.45-65.59-14.31-6.23-29.25-9.87-44.77-11.92h14.94c-.57-.25-1.14-.5-1.7-.77h-60.3c-.57.27-1.15.52-1.74.77h14.7c-32.43,4.05-52,7.55-77.86,17.69-24.46,9.6-48.53,20.3-72.36,31.4-15.84,7.37-32,11.69-49.47,12.32a260.34,260.34,0,0,0-64.87,10.87c-65.7,19.51-117.64,57.72-155.06,115.14-27.52,42.24-42.18,88.9-44.32,139.22a119.57,119.57,0,0,1-13.61,51.07c-13.42,25.89-25.48,52.42-33.85,80.47-10.81,36.18-17.66,72.8-12.35,110.78,3.25,23.25,11.24,44.59,26.48,62.66,19.62,23.27,45.41,35.42,75.11,39.71,26.85,3.88,53.51,1.65,80-3.65,36.71-7.36,71-21.36,104.25-38.22a9.09,9.09,0,0,0,1.45-1.19c-20.38-9.9-49.68-12.29-70.58-5.6-19.37,6.2-38.9,11.62-59.16,14.08-19.72,2.4-39.47,4.33-59.19.41-37.11-7.38-60.87-31.77-65.25-69.15-1.64-14-.24-28.59,1.07-42.78,2.5-26.95,7.65-53.54,18.22-78.55,21.27-50.34,48.15-97.61,79.75-142.22a716.63,716.63,0,0,1,128.13-138.13C-2583.16,85-2524.62,49-2461.73,20.32a288.71,288.71,0,0,1,43.07-15.76c28.64-7.9,57.95-11.43,87.51-6.39,32.13,5.48,56,21.94,67.33,53.89,5.74,16.21,4.67,32.83,3.68,49.47-1.72,28.61-8.64,56.19-16.73,83.54-6.57,22.21-2.59,43.57,5.75,65.16,1.55-2.33,2.83-4.07,3.89-5.92,2.41-4.19,4.89-8.34,7-12.66,16-32.34,26.15-66.6,32.15-102.07C-2223,99.47-2223.25,69.5-2233.6,40.3Zm-561,202.18-1.15-.47c.49-3.47.85-7,1.51-10.41,4.2-22,13.75-41.67,25.92-60.17,28.16-42.82,65.14-75.43,112.33-96a117.54,117.54,0,0,1,36.24-9.69Z" transform="translate(3150.41 37.98)"/><path class="cls-1" d="M-2057.69,830V719.69h83.26v20.15h-57.7v23.95h50.85v19.75h-51v26.11h6c16.32,0,32.64.1,49-.08,3.83,0,5.46,1,5.13,5-.41,5.12-.37,10.28-.53,15.42Z" transform="translate(3150.41 37.98)"/><path class="cls-1" d="M-2402.69,830c.12-2,.35-4,.35-6q0-49.18,0-98.38v-5.49c1-.49,1.24-.76,1.53-.76,19,.19,38-.37,56.86.89,13.52.9,25.45,6.81,32.57,19.35,14.79,26.06-2.37,56.75-33.15,59.18-8.78.69-17.63.36-26.45.52-1.79,0-3.57.17-5.72.27V830Zm26.09-50.44c10.45-.7,20.46-.57,30.15-2.26s14.28-8.63,14.3-17.75c0-9.41-4.8-17-14.26-18.26-9.83-1.35-20-.3-30.19-.3Z" transform="translate(3150.41 37.98)"/><path class="cls-1" d="M-2307.69,830c5-11.57,10-23.17,15.06-34.7,10.63-24,21.39-47.95,31.92-72,1.34-3,2.88-4.31,6.28-4.12,5.65.3,11.32.22,17,0,2.71-.09,4.16.78,5.29,3.31q23.34,52.37,46.84,104.65a15.43,15.43,0,0,1,.64,2.84h-26c-2.89-6.9-5.65-13.87-8.79-20.66-.65-1.42-2.69-3.1-4.12-3.13-15.16-.22-30.33-.19-45.49,0a5,5,0,0,0-3.8,2.16c-3.12,7.14-5.91,14.43-8.8,21.67Zm79-43.09c-5.84-14.09-11.53-27.78-17.66-42.55l-17.74,42.55Z" transform="translate(3150.41 37.98)"/><path class="cls-1" d="M-2487.69,830c-6.46-2.55-12.94-5-19.35-7.7a36,36,0,0,1-4.93-3.11c2.8-6.39,5.52-12.58,7.91-18,8.86,3.17,17.15,7.24,25.9,8.94,7.28,1.41,15.11.26,22.67-.24,2.12-.14,4.36-1.68,6.15-3.08,5.52-4.31,5.29-11.66-.89-14.84-5.1-2.63-10.78-4.23-16.29-6-8.86-2.82-18.11-4.64-26.63-8.23-21.28-9-20.11-35.75-7.3-48.11,7-6.81,15.76-10.11,25.07-11.29,16.64-2.11,32.84-.1,48,7.7.73.37,1.41.84,2.45,1.46-2.57,6.15-5.1,12.21-7.41,17.76-7.82-2.3-15.11-5.2-22.67-6.43-5.93-1-12.25-.32-18.29.48a15.77,15.77,0,0,0-8.16,4.33c-4.87,4.7-4.06,11.64,1.95,14.59,5.3,2.6,11.2,4,16.86,5.81,8.84,2.85,18.08,4.77,26.47,8.59,22.16,10.08,20.44,37.58,3.84,49.6-4.37,3.16-9.55,5.22-14.35,7.78Z" transform="translate(3150.41 37.98)"/><path class="cls-1" d="M-2138.69,830c-6.62-3.36-13.86-5.86-19.74-10.22-18.12-13.45-24.82-32.29-21.6-54.13,3.33-22.58,16.51-37.9,38.35-44.79s42.75-4.57,61.12,10.52a32,32,0,0,1,2.53,2.41c.81.83,1.56,1.72,2.71,3l-16.09,14.93c-9.86-10.12-21.54-14.65-35.65-12a33,33,0,0,0-20.43,12.34c-10.84,13.59-9.86,35.68,2.22,48.22,13.56,14.07,32.07,13.3,53.95-2.5l15.9,14.59c-5.64,7.48-13,12-21.3,15.28-2,.77-4,1.56-6,2.34Z" transform="translate(3150.41 37.98)"/><path class="cls-1" d="M-2852.69,830c-4.76-2.31-10-4-14.2-7-17-12.17-21.79-38.17-10.88-57.07,10.08-17.46,33-24.69,52.35-15.93,5.29,2.4,9.75,6.62,15,10.27V713.15H-2799v6q0,52.46,0,104.9c0,2,.21,4,.33,6h-11V813.63c-5.75,8.77-13.19,12.83-21,16.37Zm11.43-74.24c-17.85.09-31.15,14.19-30.95,32.79.22,18.94,13.47,32.68,31.35,32.5,18.05-.17,30.91-13.86,30.9-32.9C-2810,769.4-2823.24,755.67-2841.26,755.76Z" transform="translate(3150.41 37.98)"/><path class="cls-1" d="M-3124.69,830c-6.41-2.59-13.12-4.61-19.15-7.9-8.34-4.55-8.31-6.05-2.32-14,12.24,10.32,26.52,14.4,42.26,12.65a47.62,47.62,0,0,0,15.15-4.44c6.27-3,8.59-9,8.46-15.82-.12-6.55-3.75-11.14-9.46-13.51-6.71-2.79-13.77-4.76-20.7-7-7.4-2.44-15-4.33-22.18-7.35-9.38-4-15.34-11-15.77-21.72-.44-11.08,4-19.83,13.3-25.74,15.73-10,46.39-8.13,61.42,3.64l-3.47,8.19c-4.43-1.86-8.59-3.83-12.91-5.39a52.72,52.72,0,0,0-33.33-.82c-7.92,2.29-12.78,8.21-13.43,16.14-.67,8.2,2.31,13.86,10.81,17.09,8.82,3.36,18.24,5.1,27.12,8.32,7.58,2.75,15.81,5.3,21.91,10.22,14.83,12,8.88,36.89-9.9,44.22-2.91,1.14-5.87,2.17-8.81,3.25Z" transform="translate(3150.41 37.98)"/><path class="cls-1" d="M-2744.69,830c-5.63-3-11.88-5.28-16.79-9.21-15.94-12.75-19.34-38.91-7.9-56.25,11.62-17.61,34-23.33,53.34-13.6,13.73,6.93,22.05,23.13,20.58,40.82h-69.45c1.65,12.23,7.08,20.9,17.84,25.93a37.16,37.16,0,0,0,40.94-7.53l5.78,6.69c-5.32,7.16-12.93,10-20.34,13.15Zm-19.73-46.72h58.47c.14-15.11-12.82-27.37-28.7-27.52C-2751.2,755.61-2764.15,767.41-2764.42,783.28Z" transform="translate(3150.41 37.98)"/><path class="cls-1" d="M-2606.69,830q0-23.49,0-47c0-15.84-8.82-26.22-22.74-26.86-17.34-.8-30.53,9.43-31.19,25.4s-.1,32.28-.08,48.43h-11q-.15-29.68-.3-59.36c0-7.63,0-15.26,0-23.23h10.14V761.1a33.41,33.41,0,0,0,3.15-2.6c11.61-13,34.23-16.36,49-7.1,10.13,6.37,13.79,16.36,14,27.7.27,17,.08,33.93.08,50.9Z" transform="translate(3150.41 37.98)"/><path class="cls-1" d="M-2958.69,830a21.78,21.78,0,0,0-2.55-1.29c-12.06-4.35-19.34-13.31-20-25.62-1-18.4-.26-36.9-.26-55.68h10.42v5.34c0,14.66-.07,29.32.09,44,.14,12.64,7.28,21.41,18.79,23.55,14.37,2.66,27.24-3.08,31.57-14.74a47.59,47.59,0,0,0,2.88-15c.38-14.28.14-28.57.14-43.14h10.95V830h-11V818c-5.87,3.89-11.93,7.93-18,12Z" transform="translate(3150.41 37.98)"/><path class="cls-1" d="M-2547.69,830c-11.65-4.69-15.83-13.59-15.45-25.75.43-14,.1-28,.1-42v-6h-14.48V747.3h14.26V729.11H-2552V747h25v8.92h-24.64c-.11,2.35-.27,4.12-.27,5.89q0,21.24,0,42.49c0,15.19,11.2,21.64,24.75,14.32l2.05-1.1,3.88,7.67-9.43,4.8Z" transform="translate(3150.41 37.98)"/><path class="cls-1" d="M-3028.69,830c-11.8-5.25-15.59-14.63-15.08-27,.56-13.64.13-27.32.13-41v-5.84h-14.63v-8.88h14.51V729.05h10.91v18h25.14V756h-25v18q0,15,0,30c0,15.68,11.58,22.2,25.38,14.32.4-.22.86-.34,1.67-.67,1.14,2.27,2.23,4.47,3.73,7.46l-8.79,4.93Z" transform="translate(3150.41 37.98)"/><path class="cls-1" d="M-2506.3,63.12c18.79-17.87,39.73-22.95,62.62-12.51,32.74,14.92,60.75,36.51,84.85,63.07,33.75,37.19,56.21,80.41,66.39,129.62,12.83,62,5,121.49-23,178.38-4.52,9.18-8.74,18.78-11.08,28.66-1.43,6-.1,13.36,1.89,19.48,8.55,26.28,17.94,52.28,26.72,78.48,3,8.79,4.5,17.94-.18,26.73-6.09,11.44-18.05,16.84-30.81,14a49.18,49.18,0,0,1-10.39-3.47c-23-10.93-46.13-21.66-68.85-33.17-13.78-7-27.08-7.82-41.24-1.6-28.1,12.33-57.43,20.41-88.05,23-48.63,4.08-95.35-3.72-139.66-24.36-63.19-29.44-108.51-76.58-137.23-139.92-4.83-10.66-5.48-21.21.55-31.61,4.5-7.75,9.17-15.4,14.43-24.22,2.21,6.43,4.08,11.62,5.79,16.87,17.9,54.79,50,99.08,98.34,130.82,42,27.62,88.47,41.1,139,39.92a242.08,242.08,0,0,0,93.41-21.08c15.27-6.78,30.94-10.86,47.52-6.06a144.41,144.41,0,0,1,21.26,8.47c20.46,9.66,40.78,19.61,62.34,30-1.41-4.33-2.38-7.42-3.43-10.48q-10.84-31.38-21.73-62.75c-6.92-19.95-5.35-39.34,4.09-58.09,9-17.86,18.06-35.65,23.5-55,17.82-63.43,11.85-124.42-19.76-182.32s-80-95.73-142.43-116Z" transform="translate(3150.41 37.98)"/><path class="cls-1" d="M-2531.59,315.94c-.11,16.88-13.92,30.62-30.53,30.37a30.38,30.38,0,0,1-29.81-31.07c.17-16.67,13.76-30.48,30-30.49C-2545.22,284.74-2531.49,298.86-2531.59,315.94Z" transform="translate(3150.41 37.98)"/><path class="cls-1" d="M-2668.88,346.24c-16.14.26-30.37-14.07-30.52-30.75-.14-16.22,13.38-30.25,29.48-30.61,16.29-.35,30.75,13.66,31.14,30.19S-2652.41,346-2668.88,346.24Z" transform="translate(3150.41 37.98)"/><path class="cls-1" d="M-2424.19,315.39c.54,16.13-12.75,30.18-29,30.68-16.59.52-30.76-13.23-31.25-30.35-.45-15.38,13.77-30.24,29.42-30.77C-2438.26,284.39-2424.78,297.69-2424.19,315.39Z" transform="translate(3150.41 37.98)"/></svg>