<svg id="Layer_1" data-name="Layer 1" xmlns="http://www.w3.org/2000/svg" viewBox="0 0 452.47 451.42"><path d="M-652.06,157.7c33.12,9.13,61,26.73,84.35,51.92,22.62,24.43,37.54,52.75,44.41,85.28a187.14,187.14,0,0,1,2.31,67,175.32,175.32,0,0,1-34.51,81.89c-1,1.31-1.85,2.73-3.57,5.27a28.79,28.79,0,0,1,4.49,3.08q56.28,56.16,112.48,112.41c8.44,8.44,10.39,17.72,5.77,26.68-6.52,12.63-22.1,15-33.55,5.1-1.14-1-2.16-2.09-3.22-3.15q-55.35-55.33-110.67-110.7a50.85,50.85,0,0,1-3.64-4.53c-8.53,5.54-16.05,10.74-23.87,15.45-20.1,12.1-42,19.16-65.19,22.3-45.75,6.2-88.42-2.86-126.84-28.19-39.47-26-65.84-62.22-77.18-108.52-12.77-52.21-4.76-101.43,24.71-146.22,27.7-42.1,67.19-68.07,116.57-78.76C-691.68,146.44-660.49,155.38-652.06,157.7Zm-50.69,34.72c-78.14.12-141.8,62.6-141.58,141.72.21,79.57,63.28,141.51,141.87,141.45S-560.84,413.3-560.9,333.85C-561,252.64-626.83,192.15-702.75,192.42Z" transform="translate(886.36 -151.02)"/></svg>